# xmcd CD database file
#
# Track frame offsets:
#	150
#	16125
#	33975
#	63450
#	89925
#	106125
#	126075
#	138750
#	160950
#	179025
#	198675
#	216750
#
# Disc length: 3121 seconds
#
# Revision: 0
# Processed by: cddbd v1.5PL3 Copyright (c) Steve Scherf et al.
# Submitted via: CDex 1.51
#
DISCID=ae0c2f0c
DTITLE=Cruz with Roxy Quartet - Cruz with Roxy Quartet
DYEAR=2004
DGENRE=Jazz
TTITLE0=Our Love Is Here To Stay
TTITLE1=Twisted
TTITLE2=Summertime
TTITLE3=My Romance
TTITLE4=Somebody Loves Me - I Got Rhythm
TTITLE5=Triste
TTITLE6=Farmer's Market
TTITLE7=What Is This Thing Called Love
TTITLE8=Frim Fram Sauce
TTITLE9=Song For My Father
TTITLE10=The Folks Who Live On The Hill
TTITLE11=Jumpin' With Symphony Sid
EXTD=YEAR: 2004
EXTT0=
EXTT1=
EXTT2=
EXTT3=
EXTT4=
EXTT5=
EXTT6=
EXTT7=
EXTT8=
EXTT9=
EXTT10=
EXTT11=
PLAYORDER=
